<svg xmlns="http://www.w3.org/2000/svg" viewBox="0 0 480 300" role="img" aria-labelledby="t">
  <title id="t">Abstrakte Illustration: Fernsehkamera mit Aufnahme-Symbol</title>
  <rect width="480" height="300" fill="#0f151d"/>
  <g stroke="#223041" stroke-width="1">
    <path d="M0 60 H480 M0 120 H480 M0 180 H480 M0 240 H480 M80 0 V300 M160 0 V300 M240 0 V300 M320 0 V300 M400 0 V300"/>
  </g>
  <g fill="none" stroke="#ff5566" stroke-width="2.5" stroke-linecap="round" stroke-linejoin="round">
    <rect x="130" y="110" width="170" height="100" rx="12"/>
    <path d="M300 140 l60 -30 v100 l-60 -30"/>
    <circle cx="175" cy="85" r="22"/><circle cx="245" cy="85" r="22"/>
    <path d="M215 210 l-30 60 M215 210 l30 60 M215 210 v60"/>
  </g>
  <g fill="#ff5566"><circle cx="160" cy="135" r="7"/></g>
  <g fill="#ffb454" opacity="0.85"><rect x="190" y="160" width="80" height="8" rx="4"/></g>
</svg>
