<svg xmlns="http://www.w3.org/2000/svg" viewBox="0 0 480 300" role="img" aria-labelledby="t">
  <title id="t">Abstrakte Illustration: Videofenster mit Play-Symbol und Diagnoseadapter</title>
  <rect width="480" height="300" fill="#0f151d"/>
  <g stroke="#223041" stroke-width="1">
    <path d="M0 60 H480 M0 120 H480 M0 180 H480 M0 240 H480 M80 0 V300 M160 0 V300 M240 0 V300 M320 0 V300 M400 0 V300"/>
  </g>
  <g fill="none" stroke="#ff5566" stroke-width="2.5" stroke-linecap="round" stroke-linejoin="round">
    <rect x="90" y="60" width="300" height="170" rx="14"/>
    <circle cx="240" cy="145" r="42"/>
    <path d="M110 255 H370"/>
  </g>
  <g fill="#ff5566"><path d="M226 122 L264 145 L226 168 Z"/></g>
  <g fill="#ffb454" opacity="0.85">
    <rect x="110" y="250" width="110" height="10" rx="5"/>
    <circle cx="220" cy="255" r="8"/>
  </g>
  <g fill="none" stroke="#ffb454" stroke-width="2.5" stroke-linecap="round" stroke-linejoin="round" opacity="0.85">
    <rect x="310" y="80" width="56" height="34" rx="6"/>
    <path d="M322 114 v10 M354 114 v10"/>
  </g>
</svg>
